# xmcd
#
# Track frame offsets:
#	150
#	13069
#	22279
#	33097
#	42487
#	51055
#	64204
#	76634
#	86474
#	94667
#	106186
#	117528
#	127802
#	138655
#	148513
#	160131
#	170918
#	181997
#	194730
#	205170
#
# Disc length: 2886 seconds
#
# Revision: 0
# Processed by: cddbd v1.5.2PL0 Copyright (c) Steve Scherf et al.
# Submitted via: audiograbber 1.83.01
#
DISCID=180b4414
DTITLE=Rock n Roll Cowboys - CD6
DYEAR=2014
DGENRE=Country
TTITLE0=RED FOLEY - FREIGHT TRAIN BOOGIE
TTITLE1=GEORGE JONES - MYBE LITTLE BABY
TTITLE2=MARVIN RAINWATER - GAMBLIN MAN
TTITLE3=WEBB PIERCE - HONKY TONK SONG
TTITLE4=JOHNNY HORTON - THE WILD ONE
TTITLE5=LEROY VAN DIEKE - AUCTIONEER
TTITLE6=DON GIBSON - JUST ONE TIME
TTITLE7=JOHNNY DUNCAN and HIBS BLUE GRASS BOYS - ROCKABILLY BABY
TTITLE8=BOB LUMAN - WHY WHY - BYE BYE
TTITLE9=JOHNNY CASH - BIG RIVER
TTITLE10=LOUVIN BROTHERS - DON´T LAUGH
TTITLE11=MARTY ROBBINS - AIN´T I THE LUCKY ONE
TTITLE12=BONNIE GUITAR - MISTER FIRE EYES
TTITLE13=RUSTY and DOUG KERSHAW - YOU´LL SEE
TTITLE14=WILMA LEE COOPER and STOONEY COOPER - BIG MIDNIGHT SPECIAL
TTITLE15=FERLIN HUSKY - PRIZE POSSESSION
TTITLE16=CARL PERKINS - DIXIE FRIED
TTITLE17=JOHNNY HORTON - NORTH TO ALASKA
TTITLE18=WEBB PIERCE - HOLIDAY FOR LOVE
TTITLE19=DON GIBSON - OH LONESOME ME
EXTD=
EXTT0=
EXTT1=
EXTT2=
EXTT3=
EXTT4=
EXTT5=
EXTT6=
EXTT7=
EXTT8=
EXTT9=
EXTT10=
EXTT11=
EXTT12=
EXTT13=
EXTT14=
EXTT15=
EXTT16=
EXTT17=
EXTT18=
EXTT19=
PLAYORDER=
